<svg id="visual" viewBox="0 0 960 540" width="960" height="540" xmlns="http://www.w3.org/2000/svg" xmlns:xlink="http://www.w3.org/1999/xlink" version="1.1"><path d="M0 66L7 63.3C14 60.7 28 55.3 41.8 53.5C55.7 51.7 69.3 53.3 83.2 52.3C97 51.3 111 47.7 125 42.3C139 37 153 30 167 22.7C181 15.3 195 7.7 208.8 3.8C222.7 0 236.3 0 250.2 2C264 4 278 8 292 20.8C306 33.7 320 55.3 334 58.8C348 62.3 362 47.7 375.8 45.8C389.7 44 403.3 55 417.2 61.3C431 67.7 445 69.3 459 69.3C473 69.3 487 67.7 501 63.2C515 58.7 529 51.3 542.8 46.8C556.7 42.3 570.3 40.7 584.2 38C598 35.3 612 31.7 626 28C640 24.3 654 20.7 668 23.3C682 26 696 35 709.8 36.8C723.7 38.7 737.3 33.3 751.2 28.8C765 24.3 779 20.7 793 29.7C807 38.7 821 60.3 835 64.8C849 69.3 863 56.7 876.8 45.8C890.7 35 904.3 26 918.2 26C932 26 946 35 953 39.5L960 44L960 0L953 0C946 0 932 0 918.2 0C904.3 0 890.7 0 876.8 0C863 0 849 0 835 0C821 0 807 0 793 0C779 0 765 0 751.2 0C737.3 0 723.7 0 709.8 0C696 0 682 0 668 0C654 0 640 0 626 0C612 0 598 0 584.2 0C570.3 0 556.7 0 542.8 0C529 0 515 0 501 0C487 0 473 0 459 0C445 0 431 0 417.2 0C403.3 0 389.7 0 375.8 0C362 0 348 0 334 0C320 0 306 0 292 0C278 0 264 0 250.2 0C236.3 0 222.7 0 208.8 0C195 0 181 0 167 0C153 0 139 0 125 0C111 0 97 0 83.2 0C69.3 0 55.7 0 41.8 0C28 0 14 0 7 0L0 0Z" fill="#003784"></path><path d="M0 66L7 67.8C14 69.7 28 73.3 41.8 72.3C55.7 71.3 69.3 65.7 83.2 61.2C97 56.7 111 53.3 125 64.2C139 75 153 100 167 105.3C181 110.7 195 96.3 208.8 88.3C222.7 80.3 236.3 78.7 250.2 72.3C264 66 278 55 292 64.8C306 74.7 320 105.3 334 107.2C348 109 362 82 375.8 76.7C389.7 71.3 403.3 87.7 417.2 92.2C431 96.7 445 89.3 459 94.7C473 100 487 118 501 126.2C515 134.3 529 132.7 542.8 130C556.7 127.3 570.3 123.7 584.2 111C598 98.3 612 76.7 626 80.2C640 83.7 654 112.3 668 111.5C682 110.7 696 80.3 709.8 68.7C723.7 57 737.3 64 751.2 65.7C765 67.3 779 63.7 793 72.7C807 81.7 821 103.3 835 102.5C849 101.7 863 78.3 876.8 71.2C890.7 64 904.3 73 918.2 88.3C932 103.7 946 125.3 953 136.2L960 147L960 42L953 37.5C946 33 932 24 918.2 24C904.3 24 890.7 33 876.8 43.8C863 54.7 849 67.3 835 62.8C821 58.3 807 36.7 793 27.7C779 18.7 765 22.3 751.2 26.8C737.3 31.3 723.7 36.7 709.8 34.8C696 33 682 24 668 21.3C654 18.7 640 22.3 626 26C612 29.7 598 33.3 584.2 36C570.3 38.7 556.7 40.3 542.8 44.8C529 49.3 515 56.7 501 61.2C487 65.7 473 67.3 459 67.3C445 67.3 431 65.7 417.2 59.3C403.3 53 389.7 42 375.8 43.8C362 45.7 348 60.3 334 56.8C320 53.3 306 31.7 292 19.2C278 6.7 264 3.3 250.2 1.7C236.3 0 222.7 0 208.8 3.5C195 7 181 14 167 21C153 28 139 35 125 40.3C111 45.7 97 49.3 83.2 50.3C69.3 51.3 55.7 49.7 41.8 51.5C28 53.3 14 58.7 7 61.3L0 64Z" fill="#01327c"></path><path d="M0 93L7 90.3C14 87.7 28 82.3 41.8 81.3C55.7 80.3 69.3 83.7 83.2 84.5C97 85.3 111 83.7 125 91C139 98.3 153 114.7 167 115.5C181 116.3 195 101.7 208.8 92.7C222.7 83.7 236.3 80.3 250.2 78.7C264 77 278 77 292 94C306 111 320 145 334 142.2C348 139.3 362 99.7 375.8 90.7C389.7 81.7 403.3 103.3 417.2 107C431 110.7 445 96.3 459 105.3C473 114.3 487 146.7 501 156.5C515 166.3 529 153.7 542.8 149.2C556.7 144.7 570.3 148.3 584.2 138.5C598 128.7 612 105.3 626 109C640 112.7 654 143.3 668 138.8C682 134.3 696 94.7 709.8 82C723.7 69.3 737.3 83.7 751.2 84.5C765 85.3 779 72.7 793 82.7C807 92.7 821 125.3 835 126.3C849 127.3 863 96.7 876.8 91.2C890.7 85.7 904.3 105.3 918.2 126C932 146.7 946 168.3 953 179.2L960 190L960 145L953 134.2C946 123.3 932 101.7 918.2 86.3C904.3 71 890.7 62 876.8 69.2C863 76.3 849 99.7 835 100.5C821 101.3 807 79.7 793 70.7C779 61.7 765 65.3 751.2 63.7C737.3 62 723.7 55 709.8 66.7C696 78.3 682 108.7 668 109.5C654 110.3 640 81.7 626 78.2C612 74.7 598 96.3 584.2 109C570.3 121.7 556.7 125.3 542.8 128C529 130.7 515 132.3 501 124.2C487 116 473 98 459 92.7C445 87.3 431 94.7 417.2 90.2C403.3 85.7 389.7 69.3 375.8 74.7C362 80 348 107 334 105.2C320 103.3 306 72.7 292 62.8C278 53 264 64 250.2 70.3C236.3 76.7 222.7 78.3 208.8 86.3C195 94.3 181 108.7 167 103.3C153 98 139 73 125 62.2C111 51.3 97 54.7 83.2 59.2C69.3 63.7 55.7 69.3 41.8 70.3C28 71.3 14 67.7 7 65.8L0 64Z" fill="#012e73"></path><path d="M0 120L7 117.3C14 114.7 28 109.3 41.8 148.8C55.7 188.3 69.3 272.7 83.2 278.8C97 285 111 213 125 208.5C139 204 153 267 167 275.2C181 283.3 195 236.7 208.8 215.2C222.7 193.7 236.3 197.3 250.2 184.7C264 172 278 143 292 141.2C306 139.3 320 164.7 334 173.7C348 182.7 362 175.3 375.8 194.2C389.7 213 403.3 258 417.2 263.5C431 269 445 235 459 233.3C473 231.7 487 262.3 501 271.3C515 280.3 529 267.7 542.8 264C556.7 260.3 570.3 265.7 584.2 250.3C598 235 612 199 626 192.7C640 186.3 654 209.7 668 203.3C682 197 696 161 709.8 144.8C723.7 128.7 737.3 132.3 751.2 142.3C765 152.3 779 168.7 793 193.8C807 219 821 253 835 238.5C849 224 863 161 876.8 162.8C890.7 164.7 904.3 231.3 918.2 263.8C932 296.3 946 294.7 953 293.8L960 293L960 188L953 177.2C946 166.3 932 144.7 918.2 124C904.3 103.3 890.7 83.7 876.8 89.2C863 94.7 849 125.3 835 124.3C821 123.3 807 90.7 793 80.7C779 70.7 765 83.3 751.2 82.5C737.3 81.7 723.7 67.3 709.8 80C696 92.7 682 132.3 668 136.8C654 141.3 640 110.7 626 107C612 103.3 598 126.7 584.2 136.5C570.3 146.3 556.7 142.7 542.8 147.2C529 151.7 515 164.3 501 154.5C487 144.7 473 112.3 459 103.3C445 94.3 431 108.7 417.2 105C403.3 101.3 389.7 79.7 375.8 88.7C362 97.7 348 137.3 334 140.2C320 143 306 109 292 92C278 75 264 75 250.2 76.7C236.3 78.3 222.7 81.7 208.8 90.7C195 99.7 181 114.3 167 113.5C153 112.7 139 96.3 125 89C111 81.7 97 83.3 83.2 82.5C69.3 81.7 55.7 78.3 41.8 79.3C28 80.3 14 85.7 7 88.3L0 91Z" fill="#01296b"></path><path d="M0 212L7 201.2C14 190.3 28 168.7 41.8 196.5C55.7 224.3 69.3 301.7 83.2 313.3C97 325 111 271 125 263.8C139 256.7 153 296.3 167 308C181 319.7 195 303.3 208.8 296.2C222.7 289 236.3 291 250.2 279.3C264 267.7 278 242.3 292 236.8C306 231.3 320 245.7 334 243.8C348 242 362 224 375.8 234C389.7 244 403.3 282 417.2 293.7C431 305.3 445 290.7 459 290.7C473 290.7 487 305.3 501 309C515 312.7 529 305.3 542.8 309.8C556.7 314.3 570.3 330.7 584.2 324.3C598 318 612 289 626 278.2C640 267.3 654 274.7 668 260.3C682 246 696 210 709.8 192.8C723.7 175.7 737.3 177.3 751.2 189C765 200.7 779 222.3 793 241.3C807 260.3 821 276.7 835 259.5C849 242.3 863 191.7 876.8 192.5C890.7 193.3 904.3 245.7 918.2 281.7C932 317.7 946 337.3 953 347.2L960 357L960 291L953 291.8C946 292.7 932 294.3 918.2 261.8C904.3 229.3 890.7 162.7 876.8 160.8C863 159 849 222 835 236.5C821 251 807 217 793 191.8C779 166.7 765 150.3 751.2 140.3C737.3 130.3 723.7 126.7 709.8 142.8C696 159 682 195 668 201.3C654 207.7 640 184.3 626 190.7C612 197 598 233 584.2 248.3C570.3 263.7 556.7 258.3 542.8 262C529 265.7 515 278.3 501 269.3C487 260.3 473 229.7 459 231.3C445 233 431 267 417.2 261.5C403.3 256 389.7 211 375.8 192.2C362 173.3 348 180.7 334 171.7C320 162.7 306 137.3 292 139.2C278 141 264 170 250.2 182.7C236.3 195.3 222.7 191.7 208.8 213.2C195 234.7 181 281.3 167 273.2C153 265 139 202 125 206.5C111 211 97 283 83.2 276.8C69.3 270.7 55.7 186.3 41.8 146.8C28 107.3 14 112.7 7 115.3L0 118Z" fill="#012563"></path><path d="M0 233L7 224C14 215 28 197 41.8 230.3C55.7 263.7 69.3 348.3 83.2 359.2C97 370 111 307 125 297.2C139 287.3 153 330.7 167 342.3C181 354 195 334 208.8 328.5C222.7 323 236.3 332 250.2 317.7C264 303.3 278 265.7 292 256.7C306 247.7 320 267.3 334 266.3C348 265.3 362 243.7 375.8 249.2C389.7 254.7 403.3 287.3 417.2 304.5C431 321.7 445 323.3 459 328.7C473 334 487 343 501 347.5C515 352 529 352 542.8 360.2C556.7 368.3 570.3 384.7 584.2 372C598 359.3 612 317.7 626 299.7C640 281.7 654 287.3 668 278.3C682 269.3 696 245.7 709.8 232.2C723.7 218.7 737.3 215.3 751.2 228C765 240.7 779 269.3 793 282.8C807 296.3 821 294.7 835 268.5C849 242.3 863 191.7 876.8 193.3C890.7 195 904.3 249 918.2 293.2C932 337.3 946 371.7 953 388.8L960 406L960 355L953 345.2C946 335.3 932 315.7 918.2 279.7C904.3 243.7 890.7 191.3 876.8 190.5C863 189.7 849 240.3 835 257.5C821 274.7 807 258.3 793 239.3C779 220.3 765 198.7 751.2 187C737.3 175.3 723.7 173.7 709.8 190.8C696 208 682 244 668 258.3C654 272.7 640 265.3 626 276.2C612 287 598 316 584.2 322.3C570.3 328.7 556.7 312.3 542.8 307.8C529 303.3 515 310.7 501 307C487 303.3 473 288.7 459 288.7C445 288.7 431 303.3 417.2 291.7C403.3 280 389.7 242 375.8 232C362 222 348 240 334 241.8C320 243.7 306 229.3 292 234.8C278 240.3 264 265.7 250.2 277.3C236.3 289 222.7 287 208.8 294.2C195 301.3 181 317.7 167 306C153 294.3 139 254.7 125 261.8C111 269 97 323 83.2 311.3C69.3 299.7 55.7 222.3 41.8 194.5C28 166.7 14 188.3 7 199.2L0 210Z" fill="#00205b"></path><path d="M0 233L7 234.8C14 236.7 28 240.3 41.8 275.5C55.7 310.7 69.3 377.3 83.2 377.3C97 377.3 111 310.7 125 305.2C139 299.7 153 355.3 167 369.7C181 384 195 357 208.8 357C222.7 357 236.3 384 250.2 377.8C264 371.7 278 332.3 292 322.5C306 312.7 320 332.3 334 331.3C348 330.3 362 308.7 375.8 306C389.7 303.3 403.3 319.7 417.2 335.8C431 352 445 368 459 372.5C473 377 487 370 501 368.3C515 366.7 529 370.3 542.8 377.5C556.7 384.7 570.3 395.3 584.2 391.7C598 388 612 370 626 361C640 352 654 352 668 334C682 316 696 280 709.8 267.3C723.7 254.7 737.3 265.3 751.2 281.5C765 297.7 779 319.3 793 323.8C807 328.3 821 315.7 835 291.3C849 267 863 231 876.8 240C890.7 249 904.3 303 918.2 340.8C932 378.7 946 400.3 953 411.2L960 422L960 404L953 386.8C946 369.7 932 335.3 918.2 291.2C904.3 247 890.7 193 876.8 191.3C863 189.7 849 240.3 835 266.5C821 292.7 807 294.3 793 280.8C779 267.3 765 238.7 751.2 226C737.3 213.3 723.7 216.7 709.8 230.2C696 243.7 682 267.3 668 276.3C654 285.3 640 279.7 626 297.7C612 315.7 598 357.3 584.2 370C570.3 382.7 556.7 366.3 542.8 358.2C529 350 515 350 501 345.5C487 341 473 332 459 326.7C445 321.3 431 319.7 417.2 302.5C403.3 285.3 389.7 252.7 375.8 247.2C362 241.7 348 263.3 334 264.3C320 265.3 306 245.7 292 254.7C278 263.7 264 301.3 250.2 315.7C236.3 330 222.7 321 208.8 326.5C195 332 181 352 167 340.3C153 328.7 139 285.3 125 295.2C111 305 97 368 83.2 357.2C69.3 346.3 55.7 261.7 41.8 228.3C28 195 14 213 7 222L0 231Z" fill="#001c53"></path><path d="M0 482L7 473C14 464 28 446 41.8 440.5C55.7 435 69.3 442 83.2 436.5C97 431 111 413 125 407.7C139 402.3 153 409.7 167 410.7C181 411.7 195 406.3 208.8 414.3C222.7 422.3 236.3 443.7 250.2 454.3C264 465 278 465 292 467.8C306 470.7 320 476.3 334 471.8C348 467.3 362 452.7 375.8 435.5C389.7 418.3 403.3 398.7 417.2 397.8C431 397 445 415 459 422.2C473 429.3 487 425.7 501 418.5C515 411.3 529 400.7 542.8 398.8C556.7 397 570.3 404 584.2 414.8C598 425.7 612 440.3 626 450.3C640 460.3 654 465.7 668 460.2C682 454.7 696 438.3 709.8 428.3C723.7 418.3 737.3 414.7 751.2 414.7C765 414.7 779 418.3 793 415.7C807 413 821 404 835 402.2C849 400.3 863 405.7 876.8 412.8C890.7 420 904.3 429 918.2 432.7C932 436.3 946 434.7 953 433.8L960 433L960 420L953 409.2C946 398.3 932 376.7 918.2 338.8C904.3 301 890.7 247 876.8 238C863 229 849 265 835 289.3C821 313.7 807 326.3 793 321.8C779 317.3 765 295.7 751.2 279.5C737.3 263.3 723.7 252.7 709.8 265.3C696 278 682 314 668 332C654 350 640 350 626 359C612 368 598 386 584.2 389.7C570.3 393.3 556.7 382.7 542.8 375.5C529 368.3 515 364.7 501 366.3C487 368 473 375 459 370.5C445 366 431 350 417.2 333.8C403.3 317.7 389.7 301.3 375.8 304C362 306.7 348 328.3 334 329.3C320 330.3 306 310.7 292 320.5C278 330.3 264 369.7 250.2 375.8C236.3 382 222.7 355 208.8 355C195 355 181 382 167 367.7C153 353.3 139 297.7 125 303.2C111 308.7 97 375.3 83.2 375.3C69.3 375.3 55.7 308.7 41.8 273.5C28 238.3 14 234.7 7 232.8L0 231Z" fill="#00184b"></path><path d="M0 492L7 491.2C14 490.3 28 488.7 41.8 486C55.7 483.3 69.3 479.7 83.2 472.5C97 465.3 111 454.7 125 452C139 449.3 153 454.7 167 452C181 449.3 195 438.7 208.8 440.5C222.7 442.3 236.3 456.7 250.2 462.8C264 469 278 467 292 469.7C306 472.3 320 479.7 334 476.2C348 472.7 362 458.3 375.8 449.3C389.7 440.3 403.3 436.7 417.2 436.7C431 436.7 445 440.3 459 445.7C473 451 487 458 501 456.2C515 454.3 529 443.7 542.8 441C556.7 438.3 570.3 443.7 584.2 447.3C598 451 612 453 626 456.7C640 460.3 654 465.7 668 466.5C682 467.3 696 463.7 709.8 461C723.7 458.3 737.3 456.7 751.2 452.2C765 447.7 779 440.3 793 435.8C807 431.3 821 429.7 835 427.8C849 426 863 424 876.8 425.7C890.7 427.3 904.3 432.7 918.2 442.7C932 452.7 946 467.3 953 474.7L960 482L960 431L953 431.8C946 432.7 932 434.3 918.2 430.7C904.3 427 890.7 418 876.8 410.8C863 403.7 849 398.3 835 400.2C821 402 807 411 793 413.7C779 416.3 765 412.7 751.2 412.7C737.3 412.7 723.7 416.3 709.8 426.3C696 436.3 682 452.7 668 458.2C654 463.7 640 458.3 626 448.3C612 438.3 598 423.7 584.2 412.8C570.3 402 556.7 395 542.8 396.8C529 398.7 515 409.3 501 416.5C487 423.7 473 427.3 459 420.2C445 413 431 395 417.2 395.8C403.3 396.7 389.7 416.3 375.8 433.5C362 450.7 348 465.3 334 469.8C320 474.3 306 468.7 292 465.8C278 463 264 463 250.2 452.3C236.3 441.7 222.7 420.3 208.8 412.3C195 404.3 181 409.7 167 408.7C153 407.7 139 400.3 125 405.7C111 411 97 429 83.2 434.5C69.3 440 55.7 433 41.8 438.5C28 444 14 462 7 471L0 480Z" fill="#001444"></path><path d="M0 503L7 501.2C14 499.3 28 495.7 41.8 497.5C55.7 499.3 69.3 506.7 83.2 500.5C97 494.3 111 474.7 125 468.3C139 462 153 469 167 473.5C181 478 195 480 208.8 482.7C222.7 485.3 236.3 488.7 250.2 489.5C264 490.3 278 488.7 292 488.7C306 488.7 320 490.3 334 492.2C348 494 362 496 375.8 494.3C389.7 492.7 403.3 487.3 417.2 483.7C431 480 445 478 459 483.3C473 488.7 487 501.3 501 498.7C515 496 529 478 542.8 470.8C556.7 463.7 570.3 467.3 584.2 472.7C598 478 612 485 626 492.2C640 499.3 654 506.7 668 505.8C682 505 696 496 709.8 493.3C723.7 490.7 737.3 494.3 751.2 492.5C765 490.7 779 483.3 793 479.7C807 476 821 476 835 473.3C849 470.7 863 465.3 876.8 467.2C890.7 469 904.3 478 918.2 487C932 496 946 505 953 509.5L960 514L960 480L953 472.7C946 465.3 932 450.7 918.2 440.7C904.3 430.7 890.7 425.3 876.8 423.7C863 422 849 424 835 425.8C821 427.7 807 429.3 793 433.8C779 438.3 765 445.7 751.2 450.2C737.3 454.7 723.7 456.3 709.8 459C696 461.7 682 465.3 668 464.5C654 463.7 640 458.3 626 454.7C612 451 598 449 584.2 445.3C570.3 441.7 556.7 436.3 542.8 439C529 441.7 515 452.3 501 454.2C487 456 473 449 459 443.7C445 438.3 431 434.7 417.2 434.7C403.3 434.7 389.7 438.3 375.8 447.3C362 456.3 348 470.7 334 474.2C320 477.7 306 470.3 292 467.7C278 465 264 467 250.2 460.8C236.3 454.7 222.7 440.3 208.8 438.5C195 436.7 181 447.3 167 450C153 452.7 139 447.3 125 450C111 452.7 97 463.3 83.2 470.5C69.3 477.7 55.7 481.3 41.8 484C28 486.7 14 488.3 7 489.2L0 490Z" fill="#000f3c"></path><path d="M0 514L7 517.7C14 521.3 28 528.7 41.8 530.5C55.7 532.3 69.3 528.7 83.2 522.3C97 516 111 507 125 502.5C139 498 153 498 167 501.5C181 505 195 512 208.8 512C222.7 512 236.3 505 250.2 506C264 507 278 516 292 518.7C306 521.3 320 517.7 334 515C348 512.3 362 510.7 375.8 507C389.7 503.3 403.3 497.7 417.2 497.7C431 497.7 445 503.3 459 510.7C473 518 487 527 501 526C515 525 529 514 542.8 509.5C556.7 505 570.3 507 584.2 512.5C598 518 612 527 626 530.5C640 534 654 532 668 525.7C682 519.3 696 508.7 709.8 510.5C723.7 512.3 737.3 526.7 751.2 526.7C765 526.7 779 512.3 793 505.2C807 498 821 498 835 498C849 498 863 498 876.8 501.5C890.7 505 904.3 512 918.2 517.3C932 522.7 946 526.3 953 528.2L960 530L960 512L953 507.5C946 503 932 494 918.2 485C904.3 476 890.7 467 876.8 465.2C863 463.3 849 468.7 835 471.3C821 474 807 474 793 477.7C779 481.3 765 488.7 751.2 490.5C737.3 492.3 723.7 488.7 709.8 491.3C696 494 682 503 668 503.8C654 504.7 640 497.3 626 490.2C612 483 598 476 584.2 470.7C570.3 465.3 556.7 461.7 542.8 468.8C529 476 515 494 501 496.7C487 499.3 473 486.7 459 481.3C445 476 431 478 417.2 481.7C403.3 485.3 389.7 490.7 375.8 492.3C362 494 348 492 334 490.2C320 488.3 306 486.7 292 486.7C278 486.7 264 488.3 250.2 487.5C236.3 486.7 222.7 483.3 208.8 480.7C195 478 181 476 167 471.5C153 467 139 460 125 466.3C111 472.7 97 492.3 83.2 498.5C69.3 504.7 55.7 497.3 41.8 495.5C28 493.7 14 497.3 7 499.2L0 501Z" fill="#000835"></path><path d="M0 541L7 541C14 541 28 541 41.8 541C55.7 541 69.3 541 83.2 541C97 541 111 541 125 541C139 541 153 541 167 541C181 541 195 541 208.8 541C222.7 541 236.3 541 250.2 541C264 541 278 541 292 541C306 541 320 541 334 541C348 541 362 541 375.8 541C389.7 541 403.3 541 417.2 541C431 541 445 541 459 541C473 541 487 541 501 541C515 541 529 541 542.8 541C556.7 541 570.3 541 584.2 541C598 541 612 541 626 541C640 541 654 541 668 541C682 541 696 541 709.8 541C723.7 541 737.3 541 751.2 541C765 541 779 541 793 541C807 541 821 541 835 541C849 541 863 541 876.8 541C890.7 541 904.3 541 918.2 541C932 541 946 541 953 541L960 541L960 528L953 526.2C946 524.3 932 520.7 918.2 515.3C904.3 510 890.7 503 876.8 499.5C863 496 849 496 835 496C821 496 807 496 793 503.2C779 510.3 765 524.7 751.2 524.7C737.3 524.7 723.7 510.3 709.8 508.5C696 506.7 682 517.3 668 523.7C654 530 640 532 626 528.5C612 525 598 516 584.2 510.5C570.3 505 556.7 503 542.8 507.5C529 512 515 523 501 524C487 525 473 516 459 508.7C445 501.3 431 495.7 417.2 495.7C403.3 495.7 389.7 501.3 375.8 505C362 508.7 348 510.3 334 513C320 515.7 306 519.3 292 516.7C278 514 264 505 250.2 504C236.3 503 222.7 510 208.8 510C195 510 181 503 167 499.5C153 496 139 496 125 500.5C111 505 97 514 83.2 520.3C69.3 526.7 55.7 530.3 41.8 528.5C28 526.7 14 519.3 7 515.7L0 512Z" fill="#00002e"></path></svg>